<svg xmlns="http://www.w3.org/2000/svg" viewBox="0 0 317.43 102.1"><defs><style>.cls-1{fill:#fff;}</style></defs><title>Asset 1</title><g id="Layer_2" data-name="Layer 2"><g id="Layer_1-2" data-name="Layer 1"><path class="cls-1" d="M133.73,63.59c0,6.6-10.7,9.6-15.2,1.4l-13.8,2.6c4.7,19.7,44.2,22.8,44.2-4.2V19.09h-15.2Z"/><path class="cls-1" d="M209.93,81.49h16V59.89H246V46.79h-20.1v-13h23.3V18.49h-30.5a8.81,8.81,0,0,0-8.8,8.8Z"/><path class="cls-1" d="M279.13,17.49c-18.5,0-25.5,12-25.5,23v40.9h15.8V59.49h19.4v21.9h15.9V40.49C304.73,29.59,297.63,17.49,279.13,17.49Zm9.8,29.1h-19.4v-6c0-4.7,2.3-8.4,9.6-8.4s9.7,3.8,9.7,8.4v6Z"/><path class="cls-1" d="M179.43,17.49c-18.5,0-25.5,12-25.5,23v40.9h15.8V59.49h19.4v21.9h15.8V40.49C205,29.59,197.93,17.49,179.43,17.49Zm9.8,29.1h-19.4v-6c0-4.7,2.3-8.4,9.6-8.4s9.7,3.8,9.7,8.4v6Z"/><path class="cls-1" d="M311.13,29c-3.5,0-6.3-2.6-6.3-5.7s2.8-5.7,6.3-5.7,6.3,2.6,6.3,5.7A6.17,6.17,0,0,1,311.13,29Zm0-10.4a4.83,4.83,0,0,0-5,4.7,5,5,0,0,0,10,0A4.83,4.83,0,0,0,311.13,18.59Zm1.3,7.7-1.4-2.4h-.9v2.4h-1.2v-6.2h2.5a2,2,0,0,1,2.2,1.9,1.83,1.83,0,0,1-1.3,1.7l1.5,2.6Zm-1.1-5.2h-1.1V23h1.1c.7,0,1.1-.4,1.1-.9A1,1,0,0,0,311.33,21.09Z"/><path class="cls-1" d="M45.9,0A45.9,45.9,0,0,0,0,45.9a45.37,45.37,0,0,0,13.1,32L9.2,102.1l18-14.4a45.26,45.26,0,0,0,18.8,4A45.85,45.85,0,1,0,45.9,0ZM74.8,74.8a41.33,41.33,0,0,1-15.7,9.8V69c.3-.3,8.3-11.2,8.3-11.2l-6.9-9.5s-5,9.7-8,9.8c-.3,0-.4.3-.4.5a1.82,1.82,0,0,1-.5,1.1,6,6,0,0,1-2.2,1.4c-.1,0-.1,0-.2.1h0a7.37,7.37,0,0,1-1.4.4h0a5.7,5.7,0,0,1-1.3.1h-.4c-.5,0-.9-.1-1.3-.1h0a5.73,5.73,0,0,1-1.4-.4h0c-.1,0-.1,0-.2-.1A7.58,7.58,0,0,1,41,59.7a1.82,1.82,0,0,1-.5-1.1c0-.2-.1-.5-.4-.5-3-.1-8-9.8-8-9.8l-6.9,9.5s8,10.9,8.3,11.2V84.7a48.67,48.67,0,0,1-5.3-2.1l-1.4-.7L16.5,90.1l2.3-13.9-.9-.9A40.87,40.87,0,1,1,75.2,17a40.73,40.73,0,0,1,12,28.9A43.3,43.3,0,0,1,74.8,74.8Z"/><path class="cls-1" d="M53.3,36.9a10.78,10.78,0,0,0-6.9-2.6h0a11,11,0,0,0-6.9,2.6A9.83,9.83,0,0,0,36,44.5h0a14.14,14.14,0,0,0,2.9,8.6A9.48,9.48,0,0,0,46.3,57v0a9.48,9.48,0,0,0,7.4-3.9,14.14,14.14,0,0,0,2.9-8.6h0A9.09,9.09,0,0,0,53.3,36.9Z"/><path class="cls-1" d="M14.5,27.7a3.05,3.05,0,0,0-2.1-.5c-.6.2-.5,1.1,0,2.3A16.8,16.8,0,0,1,14.5,27.7Z"/><path class="cls-1" d="M23.9,34.1h0l-.3-1.2c0-.2-.1-.3-.1-.5h0a11.43,11.43,0,0,0-1.7-3.8c-.9-.9-1.6-.3-1.5.9,0,.4.4,4,.1,5a1.38,1.38,0,0,1-.4.3c-.6.5-1.2,1-1.8,1.6a10.93,10.93,0,0,0,1.5.8c.4,3.8,5.2,18.3,5.2,18.3l5.3-7.2c-2.7-3-4.6-7.1-5.9-12.2A12.25,12.25,0,0,1,23.9,34.1Z"/><path class="cls-1" d="M83.9,36.6a23.6,23.6,0,0,0-6.7-9.8,26.45,26.45,0,0,0-3.9-2.6,36.2,36.2,0,0,0-6.4-2.9c-6.4-1.8-16.2-1.5-20.4-1s-8.6.9-12.2,1.1a50.14,50.14,0,0,0-6.9.8,29.82,29.82,0,0,0-9.6,3.7,33.88,33.88,0,0,0-8.7,8h0a11.25,11.25,0,0,0-1.8,2.6,9,9,0,0,0,2.2-2.3l.4.3a9,9,0,0,0-1.5,2.3c.1.1.9-.8,1.9-2l.3.3A9.79,9.79,0,0,0,9,37.8a10.09,10.09,0,0,0,2-2.4l.3.3a8.25,8.25,0,0,0-1.5,2.6c.1.1.9-.9,1.9-2.2l.3.3A11.64,11.64,0,0,0,10.5,39c.1.1.9-.9,1.9-2.2l.4.3a8.09,8.09,0,0,0-1.4,2.5c.1.1.9-.8,1.8-2.1l.3.3a9.79,9.79,0,0,0-1.6,2.7,8.41,8.41,0,0,0,2-2.3l.4.3A8.78,8.78,0,0,0,13,41c.1.1.8-.9,1.7-2.2h0a29.47,29.47,0,0,1,4.6-4.7h0c.5-.7.1-4.5,0-5-.2-1.3,1.1-2.2,2.4-1.2a10,10,0,0,1,1.9,3.6,11.72,11.72,0,0,1,2.4-.9,33.68,33.68,0,0,1,8.4-1.3c3.7-.2,8.3-.7,12.5-1.1s16.4.3,19,1.4c.8.3,1.5.7,2.3,1a12,12,0,0,1,1.6-3,1.38,1.38,0,0,1,2.4,1.1c0,.4-.2,2.9-.1,4.3,2,1.8,4.6,6.9,4.6,6.9h0a11.58,11.58,0,0,0,1.5,3,12.23,12.23,0,0,0-1-3.3l.4-.2v.1c.8,1.7,1.5,3.1,1.7,3s-.4-1.5-1.2-3.3v-.1l.4-.2c.7,1.6,1.4,2.9,1.6,2.8A9.64,9.64,0,0,0,79,38.6l.5-.2A10.18,10.18,0,0,0,81,41.2a8.76,8.76,0,0,0-1.1-3l.4-.2a8.68,8.68,0,0,0,1.5,2.7,9.93,9.93,0,0,0-1-3l.4-.2c.7,1.6,1.4,2.9,1.6,2.8a8.76,8.76,0,0,0-1.1-3l.4-.2c.7,1.4,1.3,2.4,1.5,2.3a7.73,7.73,0,0,0-1-2.5l.5-.2a11.61,11.61,0,0,0,1.7,2.6C85.3,39.4,84.7,38.2,83.9,36.6Z"/><path class="cls-1" d="M79.8,27.2a1.73,1.73,0,0,0-1.2.1A19.2,19.2,0,0,1,80,28.8C80.3,28,80.3,27.4,79.8,27.2Z"/><path class="cls-1" d="M72,33.3h0l-.1-.1A17.42,17.42,0,0,1,72,29c.1-1.2-.6-1.7-1.5-.8-.5.4-1.6,2.9-1.9,5.4a10.09,10.09,0,0,0-.4,2.5c-1.3,5.2-3.2,9.2-5.9,12.2l5.3,7.2S72.4,41,72.8,37.2a7.54,7.54,0,0,0,1.7-1A20.12,20.12,0,0,0,72,33.3Z"/></g></g></svg>